<svg width="24" height="24" viewBox="0 0 24 24" fill="none" xmlns="http://www.w3.org/2000/svg">
<path d="M12.25 3C13.8691 3 15.422 3.6432 16.5669 4.78811C17.7118 5.93302 18.355 7.48585 18.355 9.105C18.355 15.8931 20.8312 17.2308 21.5 17.2308H3C3.68308 17.2308 6.145 15.8788 6.145 9.105C6.145 7.48585 6.7882 5.93302 7.93311 4.78811C9.07802 3.6432 10.6309 3 12.25 3V3Z" stroke="#333333" stroke-width="2" stroke-linecap="round" stroke-linejoin="round"/>
<path d="M10.1157 19.8352C10.2387 20.3077 10.515 20.7261 10.9013 21.0247C11.2876 21.3233 11.7621 21.4853 12.2503 21.4853C12.7386 21.4853 13.213 21.3233 13.5993 21.0247C13.9856 20.7261 14.2619 20.3077 14.385 19.8352" stroke="#333333" stroke-width="2" stroke-linecap="round" stroke-linejoin="round"/>
</svg>
