<svg width="10" height="10" viewBox="0 0 10 10" fill="none" xmlns="http://www.w3.org/2000/svg">
<g clip-path="url(#clip0_2171_8862)">
<path fill-rule="evenodd" clip-rule="evenodd" d="M5.00016 1.24996C2.92909 1.24996 1.25016 2.92889 1.25016 4.99996C1.25016 7.07103 2.92909 8.74996 5.00016 8.74996C7.07123 8.74996 8.75016 7.07103 8.75016 4.99996C8.75016 2.92889 7.07123 1.24996 5.00016 1.24996ZM0.416824 4.99996C0.416824 2.46865 2.46885 0.416626 5.00016 0.416626C7.53146 0.416626 9.58349 2.46865 9.58349 4.99996C9.58349 7.53127 7.53146 9.58329 5.00016 9.58329C2.46885 9.58329 0.416824 7.53127 0.416824 4.99996Z" fill="#666666"/>
<path fill-rule="evenodd" clip-rule="evenodd" d="M5.00021 2.08337C5.23033 2.08337 5.41688 2.26992 5.41688 2.50004V4.74253L6.85321 5.4607C7.05904 5.56361 7.14247 5.81389 7.03955 6.01971C6.93664 6.22554 6.68636 6.30896 6.48054 6.20605L4.81387 5.37272C4.67271 5.30214 4.58354 5.15786 4.58354 5.00004V2.50004C4.58354 2.26992 4.77009 2.08337 5.00021 2.08337Z" fill="#666666"/>
</g>
<defs>
<clipPath id="clip0_2171_8862">
<rect width="10" height="10" fill="white"/>
</clipPath>
</defs>
</svg>
