<svg width="10" height="10" viewBox="0 0 10 10" fill="none" xmlns="http://www.w3.org/2000/svg">
<g clip-path="url(#clip0_2171_8881)">
<path d="M2.84375 0.833374C1.38823 0.833374 0.208332 2.03011 0.208332 3.50684C0.208332 5.05453 1.0773 6.51472 2.51432 7.85145C3.0048 8.3074 3.53289 8.70745 4.05662 9.06666C4.24018 9.19207 4.41187 9.30582 4.56578 9.40061C4.6596 9.45845 4.72146 9.50025 4.76042 9.52213C4.90512 9.60379 5.09487 9.60379 5.23958 9.52213C5.27854 9.50025 5.3404 9.45845 5.43422 9.40061C5.58813 9.30582 5.75981 9.19207 5.94338 9.06666C6.46711 8.70745 6.9952 8.3074 7.48568 7.85145C8.9227 6.51472 9.79167 5.05453 9.79167 3.50684C9.79167 2.03011 8.61176 0.833374 7.15625 0.833374C6.32959 0.833374 5.52248 1.2903 5.01495 1.95721C4.52007 1.27863 3.71578 0.833374 2.84375 0.833374Z" fill="#FF613C"/>
</g>
<defs>
<clipPath id="clip0_2171_8881">
<rect width="10" height="10" fill="white"/>
</clipPath>
</defs>
</svg>
