<svg width="74" height="40" viewBox="0 0 74 40" fill="none" xmlns="http://www.w3.org/2000/svg">
<path fill-rule="evenodd" clip-rule="evenodd" d="M50.3389 18.2346C50.3389 17.0465 51.302 16.0834 52.49 16.0834H71.8505C73.0385 16.0834 74.0017 17.0465 74.0017 18.2346V30.5271H67.4572C67.1019 29.8734 66.3402 29.4215 65.4579 29.4215C64.2359 29.4215 63.2452 30.2883 63.2452 31.3575C63.2452 32.4268 64.2359 33.2936 65.4579 33.2936C66.3408 33.2936 67.103 32.841 67.4579 32.1866H74.0017V37.595C74.0017 38.7831 73.0385 39.7462 71.8505 39.7462H52.49C51.302 39.7462 50.3389 38.7831 50.3389 37.595V25.7317H57.312C57.667 26.3861 58.4291 26.8386 59.3121 26.8386C60.534 26.8386 61.5247 25.9718 61.5247 24.9026C61.5247 23.8333 60.534 22.9665 59.3121 22.9665C58.4297 22.9665 57.668 23.4184 57.3127 24.0722H50.3389V18.2346Z" fill="#FFC01E"/>
<path fill-rule="evenodd" clip-rule="evenodd" d="M27.535 16.0837C26.3469 16.0837 25.3838 17.0468 25.3838 18.2349V37.5953C25.3838 38.7834 26.3469 39.7465 27.535 39.7465H36.3867V32.7734C35.7322 32.4184 35.2797 31.6563 35.2797 30.7733C35.2797 29.5513 36.1465 28.5607 37.2157 28.5607C38.285 28.5607 39.1518 29.5513 39.1518 30.7733C39.1518 31.6557 38.6999 32.4174 38.0461 32.7727V39.7465H46.8954C48.0835 39.7465 49.0466 38.7834 49.0466 37.5953V18.2349C49.0466 17.0468 48.0835 16.0837 46.8954 16.0837H27.535Z" fill="#FF613C"/>
<path d="M7.08593 6.4428H0.464651V4.33896H1.32942C1.43267 4.76489 2.09093 5.31989 2.62012 5.3457L2.78791 5.08756C2.07802 4.9714 1.60047 4.49384 1.60047 4.05501V3.60326H5.93721V4.33896H7.08593V6.4428ZM7.42151 11.9799V4.08082H10.8935V6.19756H11.8744V9.24361H10.8935V11.3862C9.99 11.7605 8.41535 12.0444 7.42151 11.9799ZM0.464651 8.79187C0.464651 7.52698 1.25198 6.67512 3.82046 6.67512C6.40186 6.67512 7.18919 7.52698 7.18919 8.79187C7.18919 10.018 6.40186 10.8828 3.82046 10.8828C1.25198 10.8828 0.464651 10.0309 0.464651 8.79187ZM2.54267 8.21105L2.31035 8.55954C3.16221 8.94675 4.22058 9.14035 5.1886 9.14035V8.75315C4.22058 8.75315 3.30419 8.52082 2.54267 8.21105ZM0.671163 11.1409H4.41419C4.41419 11.8121 5.09826 12.3284 6.42767 12.38C8.05395 12.4316 9.60279 12.3284 10.8935 11.8121V14.2773C9.38337 14.6904 8.17012 14.8581 6.11791 14.8581C2.28453 14.8581 0.232326 14.1741 0.671163 11.1409ZM16.6619 14.6774V11.2829C17.1395 11.1151 17.4621 10.5988 17.4621 9.12745V7.32047C17.2427 7.3721 17.0491 7.41082 16.791 7.41082V4.08082H20.2888V9.85024C20.2888 13.4642 18.6625 14.6129 16.6619 14.6774ZM12.9834 14.6774V11.2829C13.3319 11.1151 13.6546 10.5988 13.6546 9.12745V7.32047C13.4352 7.3721 13.2415 7.41082 12.9834 7.41082V4.08082H16.4812V9.85024C16.4812 13.4642 14.8549 14.6129 12.9834 14.6774ZM23.9285 14.6774H20.7147V4.08082H23.9285V14.6774Z" fill="#145044"/>
<path fill-rule="evenodd" clip-rule="evenodd" d="M2.58183 16.0821C1.39377 16.0821 0.430664 17.0452 0.430664 18.2333V37.5938C0.430664 38.7818 1.39377 39.7449 2.58183 39.7449H21.9423C23.1303 39.7449 24.0935 38.7818 24.0935 37.5938V28.7429H16.9344C16.5794 29.3973 15.8173 29.8498 14.9343 29.8498C13.7123 29.8498 12.7217 28.983 12.7217 27.9138C12.7217 26.8445 13.7123 25.9777 14.9343 25.9777C15.8167 25.9777 16.5784 26.4297 16.9337 27.0834H24.0935V18.2333C24.0935 17.0452 23.1303 16.0821 21.9423 16.0821H2.58183Z" fill="#145044"/>
</svg>
