<svg width="24" height="25" viewBox="0 0 24 25" fill="none" xmlns="http://www.w3.org/2000/svg">
<g clip-path="url(#clip0_2183_2943)">
<path d="M11.9973 3.50269C10.3699 3.50319 8.77297 3.94513 7.37678 4.78144C5.9806 5.61774 4.83739 6.81708 4.06893 8.25173C3.30047 9.68638 2.93554 11.3026 3.013 12.9282C3.09045 14.5539 3.6074 16.1281 4.50879 17.4832L3 21.4974L8.05236 20.5838C9.26895 21.1783 10.604 21.4906 11.9581 21.4973C13.3122 21.504 14.6503 21.205 15.8727 20.6225C17.0951 20.0401 18.1703 19.1893 19.0181 18.1334C19.8659 17.0776 20.4645 15.8441 20.7692 14.5247C21.0739 13.2054 21.0769 11.8343 20.778 10.5136C20.479 9.19293 19.8858 7.95677 19.0426 6.89727C18.1994 5.83777 17.128 4.98225 15.9081 4.39449C14.6882 3.80673 13.3514 3.50189 11.9973 3.50269V3.50269Z" stroke="#333333" stroke-width="2" stroke-linecap="round" stroke-linejoin="round"/>
</g>
<defs>
<clipPath id="clip0_2183_2943">
<rect width="24" height="24" fill="white" transform="translate(0 0.5)"/>
</clipPath>
</defs>
</svg>
